<?xml version="1.0" encoding="utf-8" ?>
<svg xmlns="http://www.w3.org/2000/svg" width="1000" height="1000">
	<defs>
		<marker id="arrow" markerWidth="3" markerHeight="3" refX="0" refY="1.5" orient="auto">
			<polygon points="0,3 0,0 3,1.5" />
		</marker>
	</defs>

	<!-- Shapes. -->
	<path fill="grey" d="
		M500,20 l-480,200 100,760 700,-250 160,-600 Z
		M320,250 l100,-45 -190,110 210,-90 -190,110 210,-90 -190,110 210,-90 -190,110 210,-90 -190,110 210,-90 -190,110 210,-90 -50,25 170,0 -50,200 -60,15 -100,45 210,-90 -190,110 210,-90 -190,110 210,-90 -190,110 210,-90 -190,110 210,-90 -190,110 210,-90 -10,30 -450,150 -100,-500 Z Z" />
	<path fill="grey" d="M450,400 l-50,50 20,150, 160,-37 40,-20 5,-15 -160,60 180,-110 -210,90 190,-110 -210,90 190,-110 -200,85 180,-110 -180,80 v-5 l160,-100 -160,70 v-7 l140,-90 Z" />
	<path stroke="black" stroke-width="20" fill="none" d="
		M500,20 l-480,200 100,760 700,-250 160,-600 Z
		M850,200 l-100,450 -450,150 -100,-500 300,-150
		M500,350 l-100,100 20,150 200,-50 50,-200 Z" />

	<!-- Arrows. -->
	<g stroke-width="10" stroke="black" marker-end="url(#arrow)">
		<line x1="50" y1="500" x2="150" y2="500" />
		<line x1="240" y1="500" x2="340" y2="500" />
		<line x1="400" y1="500" x2="500" y2="500" />

		<line x1="550" y1="40" x2="550" y2="240" />
		<line x1="550" y1="350" x2="550" y2="450" />
	</g>

	<!-- Labels. -->
	<g font-family="sans-serif" font-size="30">
		<text x="70" y="480">Dedans</text>
		<text x="250" y="480" stroke="white" stroke-width="5">Dehors</text>
		<text x="250" y="480">Dehors</text>
		<text x="420" y="480" stroke="white" stroke-width="5">Dedans</text>
		<text x="420" y="480">Dedans</text>

		<text x="570" y="50" transform="rotate(90, 570, 50)">Dedans</text>
		<text x="570" y="370" transform="rotate(90, 570, 370)" stroke="white" stroke-width="5">Dehors</text>
		<text x="570" y="370" transform="rotate(90, 570, 370)">Dehors</text>

		<text x="350" y="350" stroke="white" stroke-width="5" font-size="100">?</text>
		<text x="350" y="350" font-size="100">?</text>
	</g>
</svg>
