<?xml version="1.0" encoding="utf-8" ?>
<svg xmlns="http://www.w3.org/2000/svg" width="1000" height="1000">
	<!-- The vase shape. -->
	<path d="M650,1000 q500,-300 100,-600 q-150,-150 -50,-400 h-400 q100,250 -50,400 q-400,300 100,600 z" fill="midnightblue" />
	<path fill="none" fill-rule="evenodd" stroke="deepskyblue" stroke-width="40" d="M500.36792,670.41632 c0.003,0.001 -0.002,0.008 -0.003,0.008 -0.0225,0.0213 -0.0557,-0.0129 -0.0642,-0.0315 -0.0439,-0.0954 0.0635,-0.18382 0.14507,-0.20339 0.24622,-0.0591 0.43411,0.19463 0.45891,0.41128 0.0574,0.50136 -0.44644,0.84872 -0.89779,0.86379 -0.888,0.0296 -1.46999,-0.85904 -1.45102,-1.67225 0.0335,-1.43349 1.4726,-2.34036 2.80231,-2.25362 2.16522,0.14126 3.50227,2.32733 3.30459,4.35562 -0.30316,3.11062 -3.46344,4.99816 -6.39985,4.63696 -4.29711,-0.52859 -6.87048,-4.92116 -6.28371,-9.00265 0.82696,-5.75212 6.74072,-9.16168 12.23168,-8.27786 7.50305,1.20768 11.91419,8.96235 10.65241,16.15459 -1.6802,9.57733 -11.62628,15.17046 -20.83903,13.44037 -12.00238,-2.25396 -18.97296,-14.77275 -16.67477,-26.35267 2.93839,-14.80563 18.442,-23.36411 32.76317,-20.38858 18.01448,3.7429 28.38636,22.67426 24.61483,40.13816 -4.67696,21.65636 -27.50977,34.08217 -48.54531,29.38652 -25.75869,-5.74997 -40.49398,-32.98876 -34.73667,-58.05228 6.97141,-30.34888 39.15149,-47.66421 68.72672,-40.69826 35.45435,8.35067 55.63534,46.03816 47.30433,80.63629 -9.89722,41.10251 -53.68905,64.44979 -93.84864,54.58786 -47.3208,-11.62049 -74.15002,-62.14437 -62.58188,-108.43144 13.52991,-54.13662 71.44437,-84.77846 124.45233,-71.31938 61.57739,15.63492 96.37756,81.62929 80.83337,141.97897 -17.94495,69.67053 -92.73935,108.98978 -161.07901,91.15687 C376.80939,781.01867 332.5953,696.67331 352.92997,619.668 376.14782,531.74441 470.82587,482.24468 557.19992,505.3036 655.33827,531.50318 710.52944,637.32646 684.51436,733.79975 655.09027,842.91489 537.27843,904.21836 429.94798,875.00577 309.06659,842.10496 241.21495,711.43043 273.87585,592.45747 302.30062,488.91535 398.3685,415.99541 504.86219,411.24371" />

	<!-- The ooze shield. -->
	<path d="M850,1000.1 v-0.1 l100,-200 q63,-130 0,-260 l-74.5,-149 v-0.1" fill="none" stroke="red" stroke-width="20" />
	<line x1="510" y1="386" x2="1000" y2="386" stroke="deepskyblue" stroke-width="10" stroke-dasharray="20" /> <!-- Marking the height of the shield. -->

	<!-- Markers. -->
	<line x1="840" y1="1000" x2="840" y2="860" stroke="black" stroke-width="10" />
	<path d="M840,880 a120,120 0 0 1 62,13" fill="none" stroke="black" stroke-width="10" stroke-dasharray="10" />
	<path d="M928,666 l10,-10 v6 h23 v-6 l10,10 l-10,10 v-6 h-23 v6 z" />

	<!-- Labels. -->
	<g font-family="sans-serif" font-size="55px">
		<text x="890" y="880" transform="rotate(-65, 890, 880)">Angle</text>
		<text x="725" y="680" fill="white">Distance</text>
	</g>
</svg>
