<?xml version="1.0" encoding="utf-8" ?>
<svg width="1000" height="500" xmlns="http://www.w3.org/2000/svg">
	<!-- The shape of the model. -->
	<polygon fill="skyblue" points="0,500 200,500 500,200 800,500 1000,500 500,0" />
	<polygon fill="skyblue" points="300,500 700,500 500,300" />

	<!-- Layers. -->
	<g stroke="red" stroke-width="50" opacity="0.4">
		<!-- Left leg. -->
		<line x1="50" y1="475" x2="200" y2="475" />
		<line x1="100" y1="425" x2="250" y2="425" />
		<line x1="150" y1="375" x2="300" y2="375" />
		<line x1="200" y1="325" x2="350" y2="325" />
		<line x1="250" y1="275" x2="400" y2="275" />
		<line x1="300" y1="225" x2="450" y2="225" />

		<!-- Tip. -->
		<line x1="350" y1="175" x2="650" y2="175" />
		<line x1="400" y1="125" x2="600" y2="125" />
		<line x1="450" y1="75" x2="550" y2="75" />

		<!-- Right leg. -->
		<line x1="550" y1="225" x2="700" y2="225" />
		<line x1="600" y1="275" x2="750" y2="275" />
		<line x1="650" y1="325" x2="800" y2="325" />
		<line x1="700" y1="375" x2="850" y2="375" />
		<line x1="750" y1="425" x2="900" y2="425" />
		<line x1="800" y1="475" x2="950" y2="475" />

		<!-- Centre piece. -->
		<line x1="350" y1="475" x2="650" y2="475" />
		<line x1="400" y1="425" x2="600" y2="425" />
		<line x1="450" y1="375" x2="550" y2="375" />
	</g>

	<!-- Where the cross sections intersect the model. -->
	<g stroke="black" stroke-width="2">
		<!-- Left leg. -->
		<line x1="0" y1="500" x2="200" y2="500" />
		<line x1="50" y1="450" x2="250" y2="450" />
		<line x1="100" y1="400" x2="300" y2="400" />
		<line x1="150" y1="350" x2="350" y2="350" />
		<line x1="200" y1="300" x2="400" y2="300" />
		<line x1="250" y1="250" x2="450" y2="250" />

		<!-- Tip. -->
		<line x1="300" y1="200" x2="700" y2="200" />
		<line x1="350" y1="150" x2="650" y2="150" />
		<line x1="400" y1="100" x2="600" y2="100" />
		<line x1="450" y1="50" x2="550" y2="50" />

		<!-- Right leg. -->
		<line x1="550" y1="250" x2="750" y2="250" />
		<line x1="600" y1="300" x2="800" y2="300" />
		<line x1="650" y1="350" x2="850" y2="350" />
		<line x1="700" y1="400" x2="900" y2="400" />
		<line x1="750" y1="450" x2="950" y2="450" />
		<line x1="800" y1="500" x2="1000" y2="500" />

		<!-- Centre piece. -->
		<line x1="300" y1="500" x2="700" y2="500" />
		<line x1="350" y1="450" x2="650" y2="450" />
		<line x1="400" y1="400" x2="600" y2="400" />
		<line x1="450" y1="350" x2="550" y2="350" />
	</g>

	<!-- Legend. -->
	<line stroke="skyblue" stroke-width="50" x1="720" y1="100" x2="780" y2="100" />
	<line stroke="red" stroke-width="50" opacity="0.4" x1="720" y1="150" x2="780" y2="150" />
	<g font-family="sans-serif" font-size="30px">
		<text x="800" y="110">Model</text>
		<text x="800" y="160">Layers</text>
	</g>
</svg>