<?xml version="1.0" encoding="utf-8" ?>
<svg xmlns="http://www.w3.org/2000/svg" width="2000" height="500">
	<defs>
		<linearGradient id="left" x1="0%" y1="0%" x2="100%" y2="0%">
			<stop offset="0%" stop-color="deepskyblue" stop-opacity="0" />
			<stop offset="100%" stop-color="deepskyblue" stop-opacity="1" />
		</linearGradient>
		<linearGradient id="right" x1="0%" y1="0%" x2="100%" y2="0%">
			<stop offset="0%" stop-color="deepskyblue" stop-opacity="1" />
			<stop offset="100%" stop-color="deepskyblue" stop-opacity="0" />
		</linearGradient>
	</defs>

	<!-- The model. -->
	<g stroke="black" stroke-width="10">
		<g fill="url('#left')">
			<path d="M0,110 h600 v250 h-600" />
		</g>
		<g fill="url('#right')">
			<path d="M2000,110 h-600 v250 h600" />
		</g>
	</g>

	<!-- Travel moves. -->
	<path d="M585,100 v-100 h830 v70 h20 l-30,30 l-30,-30 h20 v-50 h-790 v80 z" fill="midnightblue" />
	<path d="M560,100 l-20,-20 h15 v-60 h-15 l20,-20 l20,20 h-15 v60 h15 z" />
	<path d="M700,40 h580 v-15 l20,20 l-20,20 v-15 h-580 z" />

	<!-- Labels. -->
	<g font-family="sans-serif" font-size="60px">
		<text x="1000" y="120" text-anchor="middle">Vitesse déplacement</text>
	</g>
	<g font-family="sans-serif" font-size="50px">
		<text x="530" y="80" text-anchor="end">Vitesse du décalage en Z</text>
	</g>
</svg>
