<?xml version="1.0" encoding="utf-8" ?>
<svg xmlns="http://www.w3.org/2000/svg" width="1000" height="1000">
	<!-- Connecting zigzaggy lines. -->
	<polygon stroke="deepskyblue" stroke-width="30" fill="none" stroke-linejoin="bevel" points="500,350 500,50 606,394 818,182 650,500 950,500 606,606 818,818 500,650 500,950 394,606 182,818 350,500 50,500 394,394 182,182" />
	<g stroke="darkblue" stroke-width="50" fill="none">
		<!-- Concentric rings. -->
		<circle cx="500" cy="500" r="450" />
		<circle cx="500" cy="500" r="150" />
	</g>

	<!-- Legend. -->
	<polygon points="500,325 520,305 510,305 510,95 520,95 500,75 480,95 490,95 490,305 480,305" />
	<g font-family="sans-serif" font-size="50px">
		<text x="520" y="170">
			<tspan>Distance</tspan>
			<tspan x="520" dy="1em">Encadré</tspan>
			<tspan x="520" dy="1em">Toit</tspan>
		</text>
	</g>
</svg>
