<?xml version="1.0" encoding="utf-8" ?>
<svg width="2000" height="500" xmlns="http://www.w3.org/2000/svg">
	<defs>
		<marker id="arrowForward" markerWidth="5" markerHeight="5" refX="0" refY="1.5" orient="auto" markerUnits="strokeWidth">
			<polygon points="0,0 0,3 5,1.5" />
		</marker>
		<marker id="arrowBackward" markerWidth="5" markerHeight="5" refX="5" refY="1.5" orient="auto" markerUnits="strokeWidth">
			<polygon points="5,0 0,1.5 5,3" />
		</marker>
	</defs>

	<!-- Explanations. -->
	<g stroke="black" stroke-width="5" fill="none">
		<line x1="150" y1="150" x2="250" y2="150" /> <!-- Acceleration straight line. -->
		<path d="M200,150 a50,50 0 0 0 -15,-35" /> <!-- Acceleration arc indicating the slope. -->
		<line x1="600" y1="40" x2="600" y2="220" marker-start="url(#arrowBackward)" marker-end="url(#arrowForward)" /> <!-- Speed span. -->
		<line x1="1050" y1="200" x2="1150" y2="100" /> <!-- Jerk upper line. -->
		<line x1="1050" y1="300" x2="1150" y2="200" /> <!-- Jerk lower line. -->
		<line x1="1140" y1="135" x2="1140" y2="185" marker-start="url(#arrowBackward)" marker-end="url(#arrowForward)" /> <!-- Jerk span. -->
	</g>
	<g font-family="sans-serif" font-size="40pt">
		<text x="210" y="140">Acceleration</text>
		<text x="610" y="150">Speed</text>
		<text x="1150" y="170">Jerk</text>
	</g>

	<!-- V-T curve. -->
	<polyline points="100,200 290,10 860,10 1050,200 1050,300 1240,490 1810,490 2010,290" stroke="red" stroke-width="10" fill="none" />

	<!-- Axes of V-t graph (on top of everything). -->
	<g stroke="black" stroke-width="10">
		<line x1="100" y1="0" x2="100" y2="500" />
		<line x1="100" y1="250" x2="2000" y2="250" />
	</g>
	<g text-anchor="middle" font-family="sans-serif" font-size="80pt">
		<text x="50" y="100">V</text>
		<text x="1950" y="240">t</text>
	</g>
</svg>