<?xml version="1.0" encoding="utf-8" ?>
<svg width="2000" height="1000" xmlns="http://www.w3.org/2000/svg">
	<!-- Walls. -->
	<g stroke-linejoin="round" stroke-width="95" fill="none">
		<path d="M352.5,0 v947.5 h947.5" stroke="red" />
		<path d="M452.5,0 v847.5 h847.5" stroke="lime" />
	</g>

	<!-- Infill. -->
	<g stroke-linecap="round" stroke-width="150" stroke="orange">
		<line x1="393.93" y1="206.07" x2="800" y2="-200" />
		<line x1="446.97" y1="503.03" x2="1150" y2="-200" />
		<line x1="489.39" y1="810.61" x2="1500" y2="-200" />
		<line x1="839.39" y1="810.61" x2="1500" y2="150" />
		<line x1="1189.39" y1="810.61" x2="1500" y2="500" />
	</g>

	<!-- Since QtSvg doesn't support clipping we're going to have to clip manually.
	When doing this, it is easier to draw the non-overlapping part with a manual polygon
	with the overlapping part underneath. -->
	<!-- Infill overlap. -->
	<g stroke-width="20" stroke="black">
		<line x1="393.93" y1="206.07" x2="800" y2="-200" />
		<line x1="446.97" y1="503.03" x2="1150" y2="-200" />
		<line x1="489.39" y1="810.61" x2="1500" y2="-200" />
		<line x1="839.39" y1="810.61" x2="1500" y2="150" />
		<line x1="1189.39" y1="810.61" x2="1500" y2="500" />
	</g>
	<line x1="1089.39" y1="910.61" x2="1189.39" y2="810.61" stroke-width="20" stroke="blue" /> <!-- Wipe distance. -->

	<!-- Infill overlap. Has to be clipped manually since QtSvg doesn't support clipping. -->
	<g fill="yellow">
		<polygon points="500,85.85 585.85,0 614.15,0 500,114.15" />
		<polygon points="500,435.85 935.85,0 964.15,0 500,464.15" />
		<polygon points="500,785.85 1285.85,0 1314.15,0 514.15,800 500,800" />
		<polygon points="835.85,800 1300,335.85 1300,365.15 865.15,800" />
		<polygon points="1185.85,800 1300,685.85 1300,714.15 1214.15,800" />
	</g>

	<!-- QtSvg doesn't support clipping, so draw white over the overflow. -->
	<rect x="1300" y="0" width="700" height="1000" fill="white" />

	<!-- Labels on infill overlap. -->
	<g font-family="sans-serif" font-size="100px" text-anchor="end">
		<text x="280" y="150">100%</text>
		<text x="280" y="500">50%</text>
		<text x="280" y="850">10%</text>
	</g>
	<text x="1320" y="900" font-family="sans-serif" font-size="100px" fill="blue">0.4mm wipe</text>

	<!-- Legend. -->
	<g stroke-width="10" stroke="black">
		<rect x="1350" y="5" width="100" height="100" fill="red" />
		<rect x="1350" y="155" width="100" height="100" fill="lime" />
		<rect x="1350" y="305" width="100" height="100" fill="orange" />
		<rect x="1350" y="455" width="100" height="100" />
		<rect x="1350" y="605" width="100" height="100" fill="blue" />
	</g>
	<!-- Legend text. -->
	<g font-family="sans-serif" font-size="100px">
		<text x="1500" y="90">Outer Wall</text>
		<text x="1500" y="240">Inner Wall</text>
		<text x="1500" y="390">Infill</text>
		<text x="1500" y="540">Overlap</text>
		<text x="1500" y="690">Wipe</text>
	</g>
</svg>