<?xml version="1.0" encoding="utf-8" ?>
<svg xmlns="http://www.w3.org/2000/svg" width="800" height="1000">
	<!-- The feeder. -->
	<rect x="50" y="50" width="700" height="900" rx="50" ry="50" fill="white" stroke="black" stroke-width="10" />

	<!-- The filament. -->
	<g stroke-width="100" fill="none">
		<path d="M300,-100 a2000,2000 0 0 1 0,1200" stroke="deepskyblue" />
	</g>

	<!-- The feeder wheels. -->
	<g fill="silver" stroke="black" stroke-width="6">
		<circle cx="565" cy="500" r="120" />
		<circle cx="565" cy="500" r="30" fill="white" />
		<path d="m342.07,499.61 -3.25,5.25 2.37,5.7 -4.14,4.59 1.31,6.04 -4.89,3.78 0.21,6.17 -5.48,2.84 -0.89,6.11 -5.9,1.82 -1.97,5.86 -6.13,0.73 -2.98,5.41 -6.17,-0.37 -3.9,4.79 -6,-1.47 -4.69,4.02 -5.64,-2.52 -5.33,3.11 -5.1,-3.48 -5.81,2.11 -4.4,-4.34 -6.09,1.04 -3.55,-5.05 -6.18,-0.06 -2.59,-5.61 -6.07,-1.16 -1.55,-5.98 -5.76,-2.23 -0.46,-6.16 -5.27,-3.22 0.65,-6.14 -4.61,-4.11 1.74,-5.93 -3.8,-4.87 2.77,-5.52 -2.87,-5.47 3.71,-4.94 -1.85,-5.89 4.53,-4.2 -0.77,-6.13 5.21,-3.32 0.34,-6.17 5.72,-2.34 1.44,-6.01 6.04,-1.28 2.49,-5.66 6.17,-0.18 3.46,-5.12 6.11,0.92 4.31,-4.42 5.84,2 5.03,-3.58 5.39,3.01 5.59,-2.62 4.77,3.93 5.97,-1.58 3.99,4.71 6.16,-0.49 3.09,5.35 6.15,0.62 2.08,5.82 5.94,1.7 1.01,6.09 5.54,2.74 -0.1,6.18 4.96,3.68 -1.2,6.06 4.22,4.51 -2.26,5.75 Z" />
	</g>

	<!-- Legend. -->
	<path d="M215,410 l15,-15 v10 h100 v-10 l15,15 l-15,15 v-10 h-100 v10 z" /> <!-- Arrow for feeder wheel diameter. -->
	<text font-family="sans-serif" font-size="40" x="60" y="380">Feeder Wheel Diameter</text>
</svg>