<?xml version="1.0" encoding="utf-8" ?>
<svg xmlns="http://www.w3.org/2000/svg" width="500" height="1000">
	<!-- The model. -->
	<path fill="midnightblue" d="M30,1000 v-370 l-30,-30 v-100 h30 v-500 h100 v50 h240 v-50 h100 v500 h30 v100 l-30,30 v370 h-100 v-400 h-240 v400 z m100,-500 h240 v-350 h-240 z" />
	<!-- Support. -->
	<rect x="170" y="610" width="160" height="390" fill="deepskyblue" />
	<rect x="170" y="160" width="160" height="330" fill="deepskyblue" />

	<!-- Arrows for top and bottom distance. -->
	<path fill="white" d="M220,150 l-15,-15 h10 v-30 h10 v30 h10 z" />
	<path d="M220,160 l15,15 h-10 v30 h-10 v-30 h-10 z" />
	<path fill="white" d="M220,600 l-15,-15 h10 v-30 h10 v30 h10 z" />
	<path d="M220,610 l15,15 h-10 v30 h-10 v-30 h-10 z" />
	<path fill="white" d="M190,500 l15,15 h-10 v30 h-10 v-30 h-10 z" />
	<path d="M190,490 l-15,-15 h10 v-30 h10 v30 h10 z" />

	<g font-family="sans-serif" font-size="40px" fill="white">
		<text x="235" y="140">Top distance</text>
		<text x="235" y="590">Top distance</text>
		<text x="205" y="540">Bottom distance</text>
	</g>

	<!-- Build plate. -->
	<rect fill="lightgrey" x="0" y="990" width="500" height="10" />
</svg>