<?xml version="1.0" encoding="utf-8" ?>
<svg xmlns="http://www.w3.org/2000/svg" width="2000" height="1000">
	<g stroke="deepskyblue" stroke-width="30" fill="none" stroke-linejoin="bevel">
		<!-- Connecting zigzaggy lines. -->
		<path d="M-300,-400 l600,600 v-600 l600,600 v-600 l600,600 v-600 l600,600 v-600" />
		<path d="M-300,200 l600,600 v-600 l600,600 v-600 l600,600 v-600 l600,600 v-600" />
		<path d="M-300,800 l600,600 v-600 l600,600 v-600 l600,600 v-600 l600,600 v-600" />
	</g>
	<g stroke="darkblue" stroke-width="50" fill="none">
		<!-- Horizontal "layer" lines. -->
		<line x1="0" y1="800" x2="2000" y2="800" />
		<line x1="0" y1="200" x2="2000" y2="200" />
	</g>

	<!-- Legend. -->
	<polygon fill="white" points="1100,810 1280,810 1280,820 1300,800 1280,780 1280,790 1100,790" /> <!-- Bottom flow. -->
	<polygon points="910,600 910,420 920,420 900,400 880,420 890,420 890,600" /> <!-- Up flow. -->
	<polygon points="1107,393 1307,593 1314,586 1314,614 1286,614 1293,607 1093,407" /> <!-- Down flow. -->
	<g font-family="sans-serif" font-size="50px">
		<text x="1150" y="880">Flat</text>
		<text x="930" y="550">Connection</text>
	</g>
</svg>