<?xml version="1.0" encoding="utf-8" ?>
<svg xmlns="http://www.w3.org/2000/svg" width="2000" height="1000">
	<g stroke="deepskyblue" stroke-width="30" fill="none">
		<path stroke-linejoin="bevel" d="M-300,100 l700,700 l-100,-700 l700,700 l-100,-700 l700,700 l-100,-700 l700,700 l-100,-700" /> <!-- Connecting zigzaggy lines. -->
		<path d="M317,200 l-17,-100 l100,100 h517 l-17,-100 l100,100 h517 l-17,-100 l100,100" /> <!-- Sharp line joints at the top, but not the bottom. -->
	</g>
	<g stroke="darkblue" stroke-width="50" fill="none">
		<!-- Horizontal "layer" lines. -->
		<line x1="0" y1="800" x2="2000" y2="800" />
		<line x1="0" y1="200" x2="2000" y2="200" />
	</g>

	<!-- Legend. -->
	<polygon points="860,175 880,155 870,155 870,85 880,85 860,65 840,85 850,85 850,155 840,155" />
	<polygon points="880,40 900,60 900,50 970,50 970,60 990,40 970,20 970,30 900,30 900,20" />
	<text x="840" y="130" text-anchor="end" font-family="sans-serif" font-size="50px">Drag along</text>
</svg>