<?xml version="1.0" encoding="utf-8" ?>
<svg width="1000" height="1018" xmlns="http://www.w3.org/2000/svg">
	<defs>
		<path id="nozzle_half" fill="grey" d="M490,1018 h-40 l-120,-100 h-80 v-200 h90 v-300 l-400,-400 l20,-20 l470,470 v470 l60,60 z" />
	</defs>

	<!-- The nozzle and filament tracks. -->
	<use href="#nozzle_half" />
	<use href="#nozzle_half" transform="translate(1000, 0) scale(-1, 1)" />
	<path fill="grey" d="M500,340 l-340,-340 h680 z" />

	<!-- The filament. -->
	<path fill="blue" d="M510,1008 a13,13 0 0 1 -20,0 v-10 l-60,-60 v-60 a400,400 0 0 0 10,-100 v-260 a120,120 0 0 0 -33,-87 l-500,-500 l85,-85 l500,500 a235,235 0 0 1 68,172 v260 a400,400 0 0 0 10,100 v60 l-60,60 z" />
	<path fill="magenta" d="M947,-93 l-200,200 v75 l-10,10 a10,10 0 0 0 10,10 l10,-10 h75 l200,-200 z" />

	<!-- Arrow indicating retraction. -->
	<path d="M490,1018 v-550 a70,70 0 0 1 24,-57 l205,-205 l-7,-7 h28 v28 l-7,-7 l-205,205 a60,60 0 0 0 -18,43 v550 z" />
</svg>
