<?xml version="1.0" encoding="utf-8" ?>
<svg width="2000" height="1000" xmlns="http://www.w3.org/2000/svg">
	<defs>
		<path id="heart" d="M500,750 l250,-250 a1,1 0 0 0 -250,-250 a1,1 0 0 0 -250 250 z" />
	</defs>
	<use href="#heart" fill="none" stroke-width="320" stroke="deepskyblue" />
	<use href="#heart" fill="none" stroke-width="284" stroke="white" />
	<use href="#heart" fill="none" stroke-width="280" stroke="deepskyblue" />
	<use href="#heart" fill="none" stroke-width="244" stroke="white" />
	<use href="#heart" fill="none" stroke-width="240" stroke="deepskyblue" />
	<use href="#heart" fill="none" stroke-width="204" stroke="white" />
	<use href="#heart" fill="none" stroke-width="200" stroke="deepskyblue" />
	<use href="#heart" fill="none" stroke-width="164" stroke="white" />
	<use href="#heart" fill="none" stroke-width="160" stroke="deepskyblue" />
	<use href="#heart" fill="none" stroke-width="124" stroke="white" />
	<use href="#heart" fill="none" stroke-width="120" stroke="deepskyblue" />
	<use href="#heart" fill="none" stroke-width="84" stroke="white" />
	<use href="#heart" fill="none" stroke-width="80" stroke="deepskyblue" />
	<use href="#heart" fill="none" stroke-width="44" stroke="white" />
	<use href="#heart" fill="none" stroke-width="40" stroke="deepskyblue" />
	<use href="#heart" fill="none" stroke-width="4" stroke="white" />
	<use href="#heart" fill="midnightblue"/>
	<path d="M801,370 l50,30 l-10,-20 h80 l-10,20 l50,-30 l-50,-30 l10,20 h-80 l10,-20 z" />

	<!-- Legend. -->
	<rect x="1000" y="200" width="150" height="150" fill="midnightblue" />
	<rect x="1000" y="450" width="150" height="150" fill="deepskyblue" />
	<path d="M1000,775 l50,30 l-10,-20 h80 l-10,20 l50,-30 l-50,-30 l10,20 h-80 l10,-20 z" />
	<g font-family="sans-serif" font-size="130px">
		<text x="1200" y="330">Model</text>
		<text x="1200" y="580">Krempa</text>
		<text x="1200" y="830">Šířka krempy</text>
	</g>
</svg>