<?xml version="1.0" encoding="utf-8" ?>
<svg width="500" height="1000" xmlns="http://www.w3.org/2000/svg">
	<defs>
		<path id="nozzle_half" fill="grey" d="M240,1000 h-40 l-120,-100 h-80 v-200 h90 v-400 h90 v620 l60,60 z" />
	</defs>

	<!-- The nozzle. -->
	<use href="#nozzle_half" />
	<use href="#nozzle_half" transform="translate(500, 0) scale(-1, 1)" />

	<!-- The filament. -->
	<path fill="blue" d="M260,990 a13,13 0 0 1 -20,0 v-10 l-60,-60 v-60 q30,-10 40,-40 t30,-30 t30,30 t40,40 v60 l-60,60 z" />
	<path fill="blue" d="M240,500 a500,500 0 0 0 -50,-200 v-300 h120 v300 a500,500 0 0 0 -50,200" />

	<!-- Arrow indicating retraction. -->
	<path d="M140,510 v-480 h-12 l20,-20 l20,20 h-12 v480 z" />
</svg>