<?xml version="1.0" encoding="utf-8" ?>
<svg width="2000" height="1000" xmlns="http://www.w3.org/2000/svg">
	<defs>
		<path id="heart" d="M500,750 l250,-250 a1,1 0 0 0 -250,-250 a1,1 0 0 0 -250 250 z" />
	</defs>
	<use href="#heart" fill="none" stroke-width="320" stroke="deepskyblue" />
	<use href="#heart" fill="none" stroke-width="284" stroke="white" />
	<use href="#heart" fill="none" stroke-width="280" stroke="deepskyblue" />
	<use href="#heart" fill="none" stroke-width="244" stroke="white" />
	<use href="#heart" fill="midnightblue"/>
	<path d="M801,370 l50,30 l-10,-20 h40 l-10,20 l50,-30 l-50,-30 l10,20 h-40 l10,-20 z" />

	<!-- Legend. -->
	<rect x="1000" y="200" width="150" height="150" fill="midnightblue" />
	<rect x="1000" y="450" width="150" height="150" fill="deepskyblue" />
	<path d="M1000,775 l50,30 l-10,-20 h80 l-10,20 l50,-30 l-50,-30 l10,20 h-80 l10,-20 z" />
	<g font-family="sans-serif" font-size="90px">
		<text x="1200" y="320">Model</text>
		<text x="1200" y="570">Sukénka</text>
		<text x="1200" y="820">Vzdálenost sukénky</text>
	</g>
</svg>