<?xml version="1.0" encoding="utf-8" ?>
<svg xmlns="http://www.w3.org/2000/svg" width="2000" height="1000">
	<g stroke="deepskyblue" stroke-width="30" fill="none" stroke-linejoin="bevel">
		<!-- Connecting zigzaggy lines. -->
		<path d="M-300,-400 l600,600 v-600 l600,600 v-600 l600,600 v-600 l600,600 v-600" />
		<path d="M-300,200 l600,600 v-600 l600,600 v-600 l600,600 v-600 l600,600 v-600" />
		<path d="M-300,800 l600,600 v-600 l600,600 v-600 l600,600 v-600 l600,600 v-600" />
	</g>
	<g stroke="darkblue" stroke-width="50" fill="none">
		<!-- Horizontal "layer" lines. -->
		<line x1="0" y1="800" x2="2000" y2="800" />
		<line x1="0" y1="200" x2="2000" y2="200" />
	</g>

	<!-- Legend. -->
	<polygon points="910,500 910,320 920,320 900,300 880,320 890,320 890,500" /> <!-- Up before the delay. -->
	<polygon points="1007,293 1207,493 1214,486 1214,514 1186,514 1193,507 993,307" /> <!-- Down after the delay. -->
	<circle fill="red" cx="900" cy="200" r="30" /> <!-- Point of delay. -->
	<text x="930" y="160" font-family="sans-serif" font-size="50px">Horní pauza</text>
</svg>