<?xml version="1.0" encoding="utf-8" ?>
<svg xmlns="http://www.w3.org/2000/svg" width="2000" height="1000">
	<g stroke="deepskyblue" stroke-width="30" fill="none" stroke-linejoin="bevel">
		<!-- Connecting zigzaggy lines. -->
		<path d="M-300,-400 l600,600 v-600 l600,600 v-600 l600,600 v-600 l600,600 v-600" />
		<path d="M-300,200 l600,600 v-600 l600,600 v-600 l600,600 v-600 l600,600 v-600" />
		<path d="M-300,800 l600,600 v-600 l600,600 v-600 l600,600 v-600 l600,600 v-600" />
	</g>
	<g stroke="darkblue" stroke-width="50" fill="none">
		<!-- Horizontal "layer" lines. -->
		<line x1="0" y1="800" x2="2000" y2="800" />
		<line x1="0" y1="200" x2="2000" y2="200" />
	</g>

	<!-- Legend. -->
	<polygon points="607,493 807,693 814,686 814,714 786,714 793,707 593,507" /> <!-- Down before the delay. -->
	<polygon points="910,700 910,520 920,520 900,500 880,520 890,520 890,700" /> <!-- Up after the delay. -->
	<circle fill="red" cx="900" cy="800" r="30" /> <!-- Point of delay. -->
	<text x="930" y="760" font-family="sans-serif" font-size="50px">Dolní pauza</text>
</svg>