<?xml version="1.0" encoding="utf-8" ?>
<svg width="1000" height="1000" xmlns="http://www.w3.org/2000/svg">
	<g fill="none" stroke="black" stroke-linejoin="round">
		<g stroke-width="7.5">
			<path stroke="darkred" d="
				M189.835,604.557 l254.714,78.597 430.831,-71.312 -269.269,-68.409 z
				M444.549,683.155 l-5.822,-378.432 441.019,-52.398 -4.367,359.511 z
				M189.835,604.557 l-5.822,-362.422 254.714,62.587 5.822,378.432 z
				M184.013,242.136 l420.642,-40.0265 275.091,50.215 -441.019,52.398 z
				M606.110,543.426 l-1.456,-341.317" /> <!-- The build volume. -->
			<path d="
				M424.899,771.941 l545.088,-93.153
				M567.539,769.03 v122.263 l292.557,-57.493 -0.728,-116.441 z" /> <!-- The front panel. -->
		</g>
		<path stroke-width="15" d="
			M37.176,89.187 l373.6,58.664 558.856,-50.431 -405.505,-49.402 z
			M37.176,89.187 l16.467,723.528 371.671,140.653 -14.539,-805.516 z
			M425.314,953.367 l542.258,-112.864 2.058,-743.082 -558.856,50.431 z" /> <!-- The printer frame. -->
	</g>
	<g font-family="sans-serif" font-size="50">
		<text x="600" y="710" transform="rotate(-8, 600, 710)">Width</text>
		<text x="230" y="665" transform="rotate(18, 230, 665)">Depth</text>
		<text x="860" y="500" transform="rotate(-90, 860, 500)">Height</text>
	</g>
</svg>