<?xml version="1.0" encoding="utf-8" ?>
<svg width="1000" height="500" xmlns="http://www.w3.org/2000/svg">
	<!-- The shape of the model. -->
	<polygon fill="skyblue" points="0,500 200,500 500,200 800,500 1000,500 500,0" />
	<polygon fill="skyblue" points="300,500 700,500 500,300" />

	<!-- Layers. -->
	<g stroke="red" stroke-width="50" opacity="0.4">
		<!-- Left leg. -->
		<line x1="25" y1="475" x2="225" y2="475" />
		<line x1="75" y1="425" x2="275" y2="425" />
		<line x1="125" y1="375" x2="325" y2="375" />
		<line x1="175" y1="325" x2="375" y2="325" />
		<line x1="225" y1="275" x2="425" y2="275" />
		<line x1="275" y1="225" x2="475" y2="225" />

		<!-- Tip. -->
		<line x1="325" y1="175" x2="675" y2="175" />
		<line x1="375" y1="125" x2="625" y2="125" />
		<line x1="425" y1="75" x2="575" y2="75" />
		<line x1="475" y1="25" x2="525" y2="25" />

		<!-- Right leg. -->
		<line x1="525" y1="225" x2="725" y2="225" />
		<line x1="575" y1="275" x2="775" y2="275" />
		<line x1="625" y1="325" x2="825" y2="325" />
		<line x1="675" y1="375" x2="875" y2="375" />
		<line x1="725" y1="425" x2="925" y2="425" />
		<line x1="775" y1="475" x2="975" y2="475" />

		<!-- Centre piece. -->
		<line x1="325" y1="475" x2="675" y2="475" />
		<line x1="375" y1="425" x2="625" y2="425" />
		<line x1="425" y1="375" x2="575" y2="375" />
		<line x1="475" y1="325" x2="525" y2="325" />
	</g>

	<!-- Where the cross sections intersect the model. -->
	<g stroke="black" stroke-width="2">
		<!-- Left leg. -->
		<line x1="25" y1="475" x2="225" y2="475" />
		<line x1="75" y1="425" x2="275" y2="425" />
		<line x1="125" y1="375" x2="325" y2="375" />
		<line x1="175" y1="325" x2="375" y2="325" />
		<line x1="225" y1="275" x2="425" y2="275" />
		<line x1="275" y1="225" x2="475" y2="225" />

		<!-- Tip. -->
		<line x1="325" y1="175" x2="675" y2="175" />
		<line x1="375" y1="125" x2="625" y2="125" />
		<line x1="425" y1="75" x2="575" y2="75" />
		<line x1="475" y1="25" x2="525" y2="25" />

		<!-- Right leg. -->
		<line x1="525" y1="225" x2="725" y2="225" />
		<line x1="625" y1="325" x2="825" y2="325" />
		<line x1="725" y1="425" x2="925" y2="425" />
		<line x1="575" y1="275" x2="775" y2="275" />
		<line x1="675" y1="375" x2="875" y2="375" />
		<line x1="775" y1="475" x2="975" y2="475" />

		<!-- Centre piece. -->
		<line x1="325" y1="475" x2="675" y2="475" />
		<line x1="375" y1="425" x2="625" y2="425" />
		<line x1="425" y1="375" x2="575" y2="375" />
		<line x1="475" y1="325" x2="525" y2="325" />
		<line x1="475" y1="325" x2="525" y2="325" />
	</g>

	<!-- Legend. -->
	<line stroke="skyblue" stroke-width="50" x1="720" y1="100" x2="780" y2="100" />
	<line stroke="red" stroke-width="50" opacity="0.4" x1="720" y1="150" x2="780" y2="150" />
	<g font-family="sans-serif" font-size="30px">
		<text x="800" y="110">Model</text>
		<text x="800" y="160">Layers</text>
	</g>
</svg>