<?xml version="1.0" encoding="utf-8" ?>
<svg xmlns="http://www.w3.org/2000/svg" width="2000" height="1000">
	<!-- Build plates. -->
	<line x1="0" y1="895" x2="450" y2="895" stroke="lightgrey" stroke-width="10" />
	<path fill="lightgrey" d="M665,910 h520 l-20,10 h-480 z" />

	<!-- The figurine. -->
	<g fill="midnightblue">
		<path d="m70.84,475.33 c-4.25,-1.24 -8.23,-2.4 -14.41,-4.21 -1.45,7.25 -2.84,13.66 -3.96,20.13 -0.28,1.63 0.01,3.5 0.53,5.1 6.19,18.91 -2.21,32.21 -16.49,43.29 -19.87,-4.47 -24.68,-11.31 -20.3,-30.61 2.37,-10.44 5.46,-20.8 9.2,-30.82 2.93,-7.84 3.95,-14.66 -2.51,-21.11 -4.84,-4.84 -4.55,-10.15 -2.46,-16.54 13.95,-42.65 20.5,-86.84 26.69,-131.1 1.31,-9.36 3.24,-18.7 3.63,-28.1 0.6,-14.38 8.24,-24.12 19.2,-31.76 8.8,-6.13 18.17,-11.43 27.26,-17.15 2.14,-1.35 4.15,-2.91 6.24,-4.39 -6.88,-8.79 -8.23,-26.86 -1.67,-35.52 8.31,-10.96 12.57,-23.33 15.61,-36.38 0.49,-2.09 1.22,-4.12 1.83,-6.18 4.97,-16.67 12.4,-22.92 27.96,-23.55 16.67,-0.68 26.78,5.92 32.11,22.08 4.17,12.62 7.88,25.45 10.83,38.4 0.95,4.18 -0.19,9.51 -2.08,13.51 -3.47,7.32 -2.54,13.8 2.85,18.87 6.42,6.06 13.22,12.45 21.06,16.11 12.47,5.82 22.84,13.46 30.64,24.67 14.71,21.16 28.93,42.69 44.15,63.48 10.64,14.53 23.08,27.73 33.88,42.15 15.16,20.25 29.82,40.89 44.14,61.74 5.59,8.15 9.46,17.09 6.16,27.91 -1.06,3.45 1.38,8.21 2.82,12.15 10.77,29.41 22.27,58.57 32.39,88.2 8.42,24.67 10.91,50.35 7.01,76.24 -2.82,18.71 -11.68,34.42 -27.82,49.73 -1.24,-8.21 -2.38,-13.41 -2.75,-18.66 -2.69,-38.54 -4.04,-77.23 -8.22,-115.61 -2.59,-23.74 -9.33,-47.03 -14.35,-70.5 -1.41,-6.59 -5.06,-11.27 -11.4,-14.58 -13.36,-6.97 -19.49,-18.68 -20.08,-33.65 -0.17,-4.29 -1.6,-8.52 -2.76,-14.33 -7.26,5.44 -12.67,9.48 -19.69,14.74 -24.45,-33.62 -48.58,-66.79 -73.65,-101.25 -0.89,3.19 -1.85,5.25 -2,7.36 -1.59,23.02 3.15,44.31 16.82,63.4 7.68,10.71 14.62,21.95 23.07,34.73 -4.86,2.87 -8.6,5.07 -14.4,8.5 9.79,7.54 16.75,13.76 24.53,18.72 16.32,10.34 26.77,25.12 33.56,42.82 0.55,1.44 0.34,3.18 0.46,4.59 -1.33,0.57 -2.28,1.35 -2.8,1.14 -14.41,-6.04 -23.89,-1.05 -31.36,12.15 -4.99,8.82 -12.14,16.43 -18.98,25.45 8.53,16.45 11.77,35.12 13.71,54.62 1.37,13.79 8.13,27.01 12.22,40.57 3.59,11.9 6.51,24.02 10.27,35.86 2.35,7.4 0.91,13.49 -4.28,18.84 -6.31,6.5 -7.08,13.96 -5.56,22.58 3.57,20.3 6.33,40.73 9.79,61.05 3.54,20.83 9.44,40.85 19.1,59.88 9.7,19.08 3.37,37.44 -14.87,47.17 -7.01,3.74 -16.02,1.29 -21.68,-4.56 -8.95,-9.25 -12.18,-19.7 -11.81,-32.61 0.57,-19.85 -3.03,-39.21 -10.14,-58.01 -4.99,-13.19 -7.57,-27.3 -12.53,-40.51 -4.48,-11.94 -11.13,-23.04 -16.07,-34.84 -4.27,-10.22 -7.54,-20.87 -11.13,-31.37 -5.4,-15.76 -10.03,-31.84 -16.24,-47.27 -6.06,-15.06 -8.6,-30.26 -8.81,-46.43 -0.12,-9.07 -3.61,-18.19 -6.32,-27.07 -0.69,-2.25 -3.9,-4.67 -6.37,-5.29 -10.75,-2.67 -21.65,-4.7 -34.19,-7.32 -1.39,13.35 -2.86,25.55 -3.9,37.77 -3.73,43.66 -7.31,87.33 -10.97,131 -0.8,9.5 -3.48,18.12 -8.52,26.57 -14.53,24.41 -21.14,51.52 -24.19,79.52 -1.25,11.52 -2.36,23.15 -2.2,34.71 0.12,8.32 -3.45,14 -10.37,15.86 -18.42,4.94 -36.01,15.12 -56.05,11.27 -7.84,-1.5 -15.6,-4.15 -22.92,-7.37 -5.95,-2.62 -6.44,-8.39 -2.26,-12.79 3.98,-4.18 8.95,-8.83 14.25,-10.11 24.11,-5.85 34.38,-23 37.59,-45.25 2.44,-16.96 2.9,-34.22 3.81,-51.37 0.13,-2.52 -1.41,-6.3 -3.4,-7.54 -8.05,-5.02 -7.9,-12.25 -7.38,-20.31 1.88,-28.72 3.49,-57.45 4.95,-86.18 0.33,-6.41 -0.74,-12.9 -0.4,-19.31 0.28,-5.42 1.43,-10.83 2.62,-16.15 1.5,-6.66 4.41,-13.13 5.03,-19.84 3.45,-37.63 6.4,-75.3 9.48,-112.96 0.07,-0.81 -0.27,-1.66 -0.72,-4.12 z" />
		<path d="M1003.5,28.46 C1006.86,83.95 1009.87,139.48 1013.73,194.93 C1014.89,211.52 1018.51,227.94 1022.41,253.89 C1073.42,205.53 1101.39,155.9 1110.31,96.77 C1112.12,84.76 1113.49,72.77 1114.43,60.8 A481.59,481.59 0 0 0 1003.5,28.46 z M695.45,79.31 A481.59,481.59 0 0 0 498.65,277.08 C508.53,306.49 517.97,336.1 529.92,364.66 C545.5,401.92 566.53,437.01 580.69,474.73 C596.35,516.47 604.51,561.05 620.28,602.74 C642.75,662.14 654.14,723.31 652.33,786.03 C651.15,826.82 661.36,859.85 689.64,889.07 C707.52,907.56 735.98,915.32 758.15,903.49 C815.78,872.74 835.76,814.75 805.13,754.45 C774.59,694.34 755.95,631.06 744.77,565.25 C733.85,501.05 725.15,436.48 713.86,372.35547 C709.07,345.11 711.5,321.53 731.44,301 C747.84,284.1 752.38,264.84 744.97,241.47 C733.09,204.04 723.86,165.77 712.53,128.16 C707.6,111.77 701.43,95.54 695.45,79.310547 z" />
	</g>
	<path fill="orange" d="M1018.17,227.65 C1019.47,235.43 1020.89,243.8 1022.41,253.89 C1031.58,245.2 1039.99,236.47 1047.69,227.65 z" /> <!-- Tip for minimum diameter. -->

	<!-- Support tower. -->
	<path fill="deepskyblue" d="M1022.5,254 l100,100 v556 h-200 v-556 z" />

	<!-- Encircling for zoom. -->
	<g fill="none" stroke="black" stroke-width="5">
		<circle cx="328" cy="761" r="147" />
		<circle cx="924" cy="504" r="482" />
		<line x1="465" y1="705" x2="483" y2="696" />
	</g>

	<!-- Angle indicator. -->
	<polyline fill="none" stroke="black" stroke-width="10" points="1072.5,304 1122.5,354 1051.4,354" />
	<path fill="none" stroke="black" stroke-width="10" stroke-dasharray="3" d="M1097.5,329 a35,35 0 0 0 -10,25" />
	<!-- Tower diameter. -->
	<path d="M922.5,890 l20,-20 v14 h160 v-14 l20,20 l-20,20 v-14 h-160 v14 z" />
	<!-- Minimum diameter indicator. -->
	<line x1="1050" y1="240" x2="1250" y2="200" stroke="black" stroke-width="10" />

	<!-- Labels. -->
	<g font-family="sans-serif" font-size="80px" stroke-width="10">
		<text x="1150" y="350" stroke="white">Ángulo </text>
		<text x="1150" y="350">Ángulo del techo</text>
		<text x="1186" y="860" stroke="white">tro</text>
		<text x="950" y="860">Diámetro de la torre</text>
		<text x="1260" y="220" stroke="white">Diámetro mínimo</text>
		<text x="1260" y="220">Diámetro mínimo</text>
	</g>
</svg>
