<?xml version="1.0" encoding="utf-8" ?>
<svg xmlns="http://www.w3.org/2000/svg" width="2000" height="1000">
	<g stroke="deepskyblue" stroke-width="30" fill="none" stroke-linejoin="bevel">
		<!-- Connecting zigzaggy lines. -->
		<path d="M-300,-400 l600,600 v-600 l600,600 v-600 l600,600 v-600 l600,600 v-600" />
		<path d="M-300,200 l600,600 v-600 l600,600 v-600 l600,600 v-600 l600,600 v-600" />
		<path d="M-300,800 l600,600 v-600 l600,600 v-600 l600,600 v-600 l600,600 v-600" />
	</g>
	<g stroke="darkblue" stroke-width="50" fill="none">
		<!-- Horizontal "layer" lines. -->
		<line x1="0" y1="800" x2="2000" y2="800" />
		<line x1="0" y1="200" x2="2000" y2="200" />
	</g>

	<!-- Legend. -->
	<polygon points="300,775 320,755 310,755 310,245 320,245 300,225 280,245 290,245 290,755 280,755" />
	<g font-family="sans-serif" font-size="50px">
		<text x="320" y="530">
			<tspan>Altura de</tspan>
			<tspan x="320" dy="1em">conexión</tspan>
		</text>
	</g>
</svg>